<?xml version="1.0" encoding="UTF-8"?>
<!DOCTYPE svg PUBLIC "-//W3C//DTD SVG 1.1//EN" "http://www.w3.org/Graphics/SVG/1.1/DTD/svg11.dtd">
<svg xmlns="http://www.w3.org/2000/svg" version="1.1" width="612px" height="612px" style="shape-rendering:geometricPrecision; text-rendering:geometricPrecision; image-rendering:optimizeQuality; fill-rule:evenodd; clip-rule:evenodd" xmlns:xlink="http://www.w3.org/1999/xlink">
<g><path style="opacity:1" fill="#fefefe" d="M -0.5,-0.5 C 203.5,-0.5 407.5,-0.5 611.5,-0.5C 611.5,203.5 611.5,407.5 611.5,611.5C 407.5,611.5 203.5,611.5 -0.5,611.5C -0.5,407.5 -0.5,203.5 -0.5,-0.5 Z"/></g>
<g><path style="opacity:1" fill="#fcb165" d="M 309.5,143.5 C 309.667,154.172 309.5,164.839 309,175.5C 308.072,178.035 306.238,179.035 303.5,178.5C 302.069,178.119 301.236,177.119 301,175.5C 300.5,164.839 300.333,154.172 300.5,143.5C 303.523,142.322 306.523,142.322 309.5,143.5 Z"/></g>
<g><path style="opacity:1" fill="#fccb98" d="M 309.5,143.5 C 310.659,154.659 310.826,165.992 310,177.5C 307.984,179.608 305.817,179.942 303.5,178.5C 306.238,179.035 308.072,178.035 309,175.5C 309.5,164.839 309.667,154.172 309.5,143.5 Z"/></g>
<g><path style="opacity:1" fill="#fde2bb" d="M 205.5,187.5 C 200.539,184.165 197.539,185.498 196.5,191.5C 195.031,188.898 195.698,186.731 198.5,185C 200.5,184.333 202.5,184.333 204.5,185C 205.252,185.671 205.586,186.504 205.5,187.5 Z"/></g>
<g><path style="opacity:1" fill="#f9d4af" d="M 413.5,186.5 C 415.682,192.376 413.682,196.376 407.5,198.5C 408.793,196.704 410.293,195.037 412,193.5C 413.202,191.323 413.702,188.989 413.5,186.5 Z"/></g>
<g><path style="opacity:1" fill="#fcb46a" d="M 205.5,187.5 C 206.806,188.467 207.473,189.801 207.5,191.5C 211.833,192.5 214.5,195.167 215.5,199.5C 220.235,201.065 223.568,204.231 225.5,209C 225.095,212.739 223.095,214.073 219.5,213C 216.494,210.991 213.494,208.991 210.5,207C 205.656,201.915 200.989,196.749 196.5,191.5C 197.539,185.498 200.539,184.165 205.5,187.5 Z"/></g>
<g><path style="opacity:1" fill="#fbc691" d="M 399.5,193.5 C 397.077,195.757 395.243,198.424 394,201.5C 390.754,202.913 387.92,204.913 385.5,207.5C 385.369,206.761 385.536,206.094 386,205.5C 390.417,201.241 394.917,197.241 399.5,193.5 Z"/></g>
<g><path style="opacity:1" fill="#fcb162" d="M 413.5,186.5 C 413.702,188.989 413.202,191.323 412,193.5C 410.293,195.037 408.793,196.704 407.5,198.5C 404.167,201.167 401.167,204.167 398.5,207.5C 396.704,208.793 395.037,210.293 393.5,212C 391.655,213.128 389.655,213.628 387.5,213.5C 385.919,211.858 385.253,209.858 385.5,207.5C 387.92,204.913 390.754,202.913 394,201.5C 395.243,198.424 397.077,195.757 399.5,193.5C 401.293,190.869 403.293,188.369 405.5,186C 408.261,185.278 410.927,185.445 413.5,186.5 Z"/></g>
<g><path style="opacity:1" fill="#fcd5a1" d="M 314.5,204.5 C 314.167,269.837 314.5,335.17 315.5,400.5C 316.622,401.63 317.956,402.297 319.5,402.5C 334.167,402.5 348.833,402.5 363.5,402.5C 348.005,403.661 332.339,403.828 316.5,403C 315.975,402.308 315.308,401.808 314.5,401.5C 313.168,335.668 313.168,270.001 314.5,204.5 Z"/></g>
<g><path style="opacity:1" fill="#f8d8b3" d="M 398.5,207.5 C 396.55,213.189 392.884,215.189 387.5,213.5C 389.655,213.628 391.655,213.128 393.5,212C 395.037,210.293 396.704,208.793 398.5,207.5 Z"/></g>
<g><path style="opacity:1" fill="#fefefd" d="M 330.5,213.5 C 333.187,213.336 335.854,213.503 338.5,214C 343.357,216.259 348.357,218.259 353.5,220C 357.698,223.03 362.032,225.863 366.5,228.5C 367.386,229.325 367.719,230.325 367.5,231.5C 370.614,232.091 373.114,233.758 375,236.5C 379.13,240.783 382.63,245.449 385.5,250.5C 385.59,252.696 385.923,254.863 386.5,257C 388.305,260.636 389.972,264.136 391.5,267.5C 396.507,286.338 394.841,304.671 386.5,322.5C 371.111,340.148 361.445,360.482 357.5,383.5C 356.523,386.287 356.19,389.287 356.5,392.5C 349.167,392.5 341.833,392.5 334.5,392.5C 334.325,390.379 334.659,388.379 335.5,386.5C 336.533,376.188 338.7,366.188 342,356.5C 344.862,354.93 347.695,353.263 350.5,351.5C 351.386,350.675 351.719,349.675 351.5,348.5C 352.765,347.486 353.431,345.986 353.5,344C 353.492,342.293 353.158,340.793 352.5,339.5C 345.314,327.857 337.647,327.524 329.5,338.5C 328.362,341.304 328.195,344.304 329,347.5C 329.2,349.32 330.034,350.653 331.5,351.5C 330.963,356.851 330.296,362.184 329.5,367.5C 328.232,369.905 327.565,372.572 327.5,375.5C 327.737,376.791 327.404,377.791 326.5,378.5C 324.526,323.611 323.859,268.611 324.5,213.5C 326.5,213.5 328.5,213.5 330.5,213.5 Z"/></g>
<g><path style="opacity:1" fill="#feedd3" d="M 330.5,212.5 C 330.5,212.833 330.5,213.167 330.5,213.5C 328.5,213.5 326.5,213.5 324.5,213.5C 323.859,268.611 324.526,323.611 326.5,378.5C 326.311,382.971 325.477,387.304 324,391.5C 323.5,331.501 323.333,271.501 323.5,211.5C 326.059,211.198 328.393,211.532 330.5,212.5 Z"/></g>
<g><path style="opacity:1" fill="#feebd8" d="M 385.5,250.5 C 388.873,255.6 390.873,261.267 391.5,267.5C 389.972,264.136 388.305,260.636 386.5,257C 385.923,254.863 385.59,252.696 385.5,250.5 Z"/></g>
<g><path style="opacity:1" fill="#feebcd" d="M 187.5,289.5 C 177.161,289.334 166.828,289.5 156.5,290C 153.472,291.911 152.806,294.411 154.5,297.5C 151.724,294.49 152.058,291.656 155.5,289C 166.341,288.175 177.008,288.341 187.5,289.5 Z"/></g>
<g><path style="opacity:1" fill="#fcb46a" d="M 187.5,289.5 C 187.833,290.5 188.5,291.167 189.5,291.5C 189.483,293.565 189.15,295.565 188.5,297.5C 188.389,298.117 188.056,298.617 187.5,299C 177.167,299.667 166.833,299.667 156.5,299C 155.584,298.722 154.918,298.222 154.5,297.5C 152.806,294.411 153.472,291.911 156.5,290C 166.828,289.5 177.161,289.334 187.5,289.5 Z"/></g>
<g><path style="opacity:1" fill="#fcb56c" d="M 421.5,289.5 C 432.838,289.333 444.172,289.5 455.5,290C 458.113,292.795 458.113,295.629 455.5,298.5C 444.849,299.666 434.182,299.832 423.5,299C 420.425,296.398 419.759,293.231 421.5,289.5 Z"/></g>
<g><path style="opacity:1" fill="#fbd0a3" d="M 189.5,291.5 C 190.147,292.274 190.48,293.274 190.5,294.5C 190.36,296.03 189.693,297.03 188.5,297.5C 189.15,295.565 189.483,293.565 189.5,291.5 Z"/></g>
<g><path style="opacity:1" fill="#fce3c7" d="M 396.5,323.5 C 396.438,327.52 394.771,330.52 391.5,332.5C 392.931,329.299 394.597,326.299 396.5,323.5 Z"/></g>
<g><path style="opacity:1" fill="#fbe1c1" d="M 389.5,335.5 C 388.217,338.01 387.217,340.677 386.5,343.5C 385.5,343.5 384.5,343.5 383.5,343.5C 384.932,340.347 386.932,337.68 389.5,335.5 Z"/></g>
<g><path style="opacity:1" fill="#fcdab2" d="M 352.5,339.5 C 353.158,340.793 353.492,342.293 353.5,344C 353.431,345.986 352.765,347.486 351.5,348.5C 352.299,345.57 352.632,342.57 352.5,339.5 Z"/></g>
<g><path style="opacity:1" fill="#1662a0" d="M 276.5,196.5 C 292.846,194.912 303.346,201.912 308,217.5C 308.667,278.167 308.667,338.833 308,399.5C 307.5,401.333 306.333,402.5 304.5,403C 291.167,403.667 277.833,403.667 264.5,403C 263.874,402.25 263.374,401.416 263,400.5C 262.499,394.493 261.999,388.493 261.5,382.5C 249.327,379.657 242.327,371.99 240.5,359.5C 228.88,355.379 221.047,347.379 217,335.5C 216.667,330.167 216.333,324.833 216,319.5C 205.944,309.207 203.944,297.541 210,284.5C 211.711,281.745 213.878,279.411 216.5,277.5C 215.948,265.281 220.281,255.281 229.5,247.5C 228.966,225.876 239.299,213.209 260.5,209.5C 264.088,202.902 269.422,198.569 276.5,196.5 Z"/></g>
<g><path style="opacity:1" fill="#ddeff8" d="M 298.5,393.5 C 289.318,393.827 280.318,393.493 271.5,392.5C 280.167,392.5 288.833,392.5 297.5,392.5C 297.667,380.829 297.5,369.162 297,357.5C 294.744,360.708 291.577,362.375 287.5,362.5C 287.5,362.167 287.5,361.833 287.5,361.5C 291.392,359.938 294.725,357.605 297.5,354.5C 298.499,367.483 298.832,380.483 298.5,393.5 Z"/></g>
<g><path style="opacity:1" fill="#719bbc" d="M 284.5,352.5 C 282.15,354.213 281.15,356.547 281.5,359.5C 279.67,356.022 280.67,353.689 284.5,352.5 Z"/></g>
<g><path style="opacity:1" fill="#1261a0" d="M 298.5,255.5 C 299.329,263.323 299.829,271.323 300,279.5C 300.202,277.744 300.702,276.078 301.5,274.5C 302.948,276.945 303.615,279.612 303.5,282.5C 302.436,294.346 302.436,306.346 303.5,318.5C 302.448,318.351 301.448,318.517 300.5,319C 302.536,321.5 302.87,324.167 301.5,327C 302.206,330.131 302.873,333.298 303.5,336.5C 302.601,354.994 302.601,373.494 303.5,392C 302.095,393.269 300.429,393.769 298.5,393.5C 298.832,380.483 298.499,367.483 297.5,354.5C 294.725,357.605 291.392,359.938 287.5,361.5C 285.297,361.396 283.297,360.73 281.5,359.5C 281.15,356.547 282.15,354.213 284.5,352.5C 298.186,343.842 301.186,332.509 293.5,318.5C 293.511,315.155 295.178,313.489 298.5,313.5C 298.666,306.492 298.5,299.492 298,292.5C 294.888,289.194 291.055,287.361 286.5,287C 283.689,283.706 284.022,280.706 287.5,278C 291.322,277.415 294.989,277.915 298.5,279.5C 298.5,271.5 298.5,263.5 298.5,255.5 Z"/></g>
<g><path style="opacity:1" fill="#4b84ae" d="M 227.5,268.5 C 227.269,272.993 227.936,277.326 229.5,281.5C 228.034,280.653 227.2,279.32 227,277.5C 226.195,274.304 226.362,271.304 227.5,268.5 Z"/></g>
<g><path style="opacity:1" fill="#055fa4" d="M 298.5,393.5 C 300.429,393.769 302.095,393.269 303.5,392C 302.601,373.494 302.601,354.994 303.5,336.5C 302.873,333.298 302.206,330.131 301.5,327C 302.87,324.167 302.536,321.5 300.5,319C 301.448,318.517 302.448,318.351 303.5,318.5C 302.436,306.346 302.436,294.346 303.5,282.5C 303.615,279.612 302.948,276.945 301.5,274.5C 300.702,276.078 300.202,277.744 300,279.5C 299.829,271.323 299.329,263.323 298.5,255.5C 297.177,252.183 295.843,248.85 294.5,245.5C 294.848,243.152 296.182,241.818 298.5,241.5C 299.167,235.654 299.833,229.654 300.5,223.5C 301.329,228.802 301.829,234.136 302,239.5C 302.171,234.136 302.671,228.802 303.5,223.5C 304.5,282.83 304.833,342.163 304.5,401.5C 293.495,401.667 282.495,401.5 271.5,401C 282.167,400.667 292.833,400.333 303.5,400C 302.833,399.667 302.167,399.333 301.5,399C 303.107,397.951 303.773,396.451 303.5,394.5C 301.61,394.297 300.11,394.963 299,396.5C 298.517,395.552 298.351,394.552 298.5,393.5 Z"/></g>
<g><path style="opacity:1" fill="#fbfcfc" d="M 298.5,241.5 C 296.182,241.818 294.848,243.152 294.5,245.5C 295.843,248.85 297.177,252.183 298.5,255.5C 298.5,263.5 298.5,271.5 298.5,279.5C 294.989,277.915 291.322,277.415 287.5,278C 284.022,280.706 283.689,283.706 286.5,287C 291.055,287.361 294.888,289.194 298,292.5C 298.5,299.492 298.666,306.492 298.5,313.5C 295.178,313.489 293.511,315.155 293.5,318.5C 301.186,332.509 298.186,343.842 284.5,352.5C 280.67,353.689 279.67,356.022 281.5,359.5C 281.414,360.496 281.748,361.329 282.5,362C 284.134,362.494 285.801,362.66 287.5,362.5C 291.577,362.375 294.744,360.708 297,357.5C 297.5,369.162 297.667,380.829 297.5,392.5C 288.833,392.5 280.167,392.5 271.5,392.5C 271.5,389.167 271.5,385.833 271.5,382.5C 275.13,382.235 278.297,380.902 281,378.5C 282.222,374.743 281.055,372.076 277.5,370.5C 265.955,376.603 257.121,373.937 251,362.5C 250.436,356.389 250.77,350.389 252,344.5C 247.328,341.377 243.828,342.377 241.5,347.5C 240.277,348.614 238.944,348.781 237.5,348C 229.075,342.318 225.742,334.485 227.5,324.5C 229.444,325.189 231.444,325.689 233.5,326C 236.193,331.449 240.026,332.615 245,329.5C 246.297,325.846 245.297,323.179 242,321.5C 239.149,315.205 240.816,310.538 247,307.5C 249.811,302.736 248.478,300.069 243,299.5C 235.553,301.71 231.386,306.71 230.5,314.5C 221.685,312.905 217.018,307.572 216.5,298.5C 216.39,294.665 217.39,291.165 219.5,288C 220.5,287.333 221.5,287.333 222.5,288C 223.868,293.258 227.034,294.758 232,292.5C 233.613,288.358 232.78,284.691 229.5,281.5C 227.936,277.326 227.269,272.993 227.5,268.5C 228.293,263.578 230.626,259.578 234.5,256.5C 239.818,261.262 241.984,267.262 241,274.5C 241.848,277.698 243.348,280.531 245.5,283C 249.508,284.416 251.841,283.082 252.5,279C 247.653,271.087 248.653,264.087 255.5,258C 256.793,257.51 258.127,257.343 259.5,257.5C 263.015,258.239 266.348,258.239 269.5,257.5C 272.247,256.027 273.081,253.694 272,250.5C 262.663,245.803 253.996,246.803 246,253.5C 242.163,250.474 240.33,246.474 240.5,241.5C 241.773,226.184 250.106,219.35 265.5,221C 269.895,222.237 273.562,224.57 276.5,228C 282.167,229.328 284.667,227.161 284,221.5C 280.848,217.346 276.848,214.346 272,212.5C 272.358,209.506 274.192,207.673 277.5,207C 287.129,205.064 293.962,208.564 298,217.5C 298.5,225.493 298.666,233.493 298.5,241.5 Z"/></g>
<g><path style="opacity:1" fill="#739ec3" d="M 281.5,359.5 C 283.297,360.73 285.297,361.396 287.5,361.5C 287.5,361.833 287.5,362.167 287.5,362.5C 285.801,362.66 284.134,362.494 282.5,362C 281.748,361.329 281.414,360.496 281.5,359.5 Z"/></g>
<g><path style="opacity:1" fill="#84a9c7" d="M 259.5,257.5 C 262.668,256.556 266.001,256.556 269.5,257.5C 266.348,258.239 263.015,258.239 259.5,257.5 Z"/></g>
<g><path style="opacity:1" fill="#fcb368" d="M 349.5,207.5 C 354.06,209.892 358.726,212.059 363.5,214C 367.991,217.158 372.325,220.491 376.5,224C 388.737,236.882 397.57,251.715 403,268.5C 406.312,287.66 404.146,305.993 396.5,323.5C 394.597,326.299 392.931,329.299 391.5,332.5C 391.068,333.71 390.401,334.71 389.5,335.5C 386.932,337.68 384.932,340.347 383.5,343.5C 380.436,347.081 377.936,351.081 376,355.5C 372.972,361.888 370.806,368.555 369.5,375.5C 367.96,377.838 367.294,380.505 367.5,383.5C 367.257,389.184 366.757,394.851 366,400.5C 365.292,401.381 364.458,402.047 363.5,402.5C 348.833,402.5 334.167,402.5 319.5,402.5C 332.656,401.504 345.99,401.171 359.5,401.5C 359.869,395.487 360.036,389.487 360,383.5C 359.004,386.909 358.171,390.242 357.5,393.5C 357.5,390.167 357.5,386.833 357.5,383.5C 361.445,360.482 371.111,340.148 386.5,322.5C 394.841,304.671 396.507,286.338 391.5,267.5C 390.873,261.267 388.873,255.6 385.5,250.5C 382.63,245.449 379.13,240.783 375,236.5C 373.114,233.758 370.614,232.091 367.5,231.5C 367.719,230.325 367.386,229.325 366.5,228.5C 362.032,225.863 357.698,223.03 353.5,220C 348.357,218.259 343.357,216.259 338.5,214C 335.854,213.503 333.187,213.336 330.5,213.5C 330.5,213.167 330.5,212.833 330.5,212.5C 334.876,212.114 339.043,212.781 343,214.5C 343.308,213.692 343.808,213.025 344.5,212.5C 347.181,213.039 349.681,214.039 352,215.5C 352.5,215.333 353,215.167 353.5,215C 351.512,212.858 350.179,210.358 349.5,207.5 Z"/></g>
<g><path style="opacity:1" fill="#f9d7a8" d="M 369.5,375.5 C 369.706,378.495 369.04,381.162 367.5,383.5C 367.294,380.505 367.96,377.838 369.5,375.5 Z"/></g>
<g><path style="opacity:1" fill="#fcb265" d="M 349.5,207.5 C 350.179,210.358 351.512,212.858 353.5,215C 353,215.167 352.5,215.333 352,215.5C 349.681,214.039 347.181,213.039 344.5,212.5C 343.808,213.025 343.308,213.692 343,214.5C 339.043,212.781 334.876,212.114 330.5,212.5C 328.393,211.532 326.059,211.198 323.5,211.5C 323.333,271.501 323.5,331.501 324,391.5C 325.477,387.304 326.311,382.971 326.5,378.5C 327.404,377.791 327.737,376.791 327.5,375.5C 329.04,373.162 329.706,370.495 329.5,367.5C 332.129,362.346 332.796,357.013 331.5,351.5C 329.936,347.326 329.269,342.993 329.5,338.5C 337.647,327.524 345.314,327.857 352.5,339.5C 352.632,342.57 352.299,345.57 351.5,348.5C 351.719,349.675 351.386,350.675 350.5,351.5C 347.695,353.263 344.862,354.93 342,356.5C 338.7,366.188 336.533,376.188 335.5,386.5C 333.631,388.635 332.964,391.302 333.5,394.5C 341.352,394.825 349.018,394.492 356.5,393.5C 356.833,393.5 357.167,393.5 357.5,393.5C 358.171,390.242 359.004,386.909 360,383.5C 360.036,389.487 359.869,395.487 359.5,401.5C 345.99,401.171 332.656,401.504 319.5,402.5C 317.956,402.297 316.622,401.63 315.5,400.5C 314.5,335.17 314.167,269.837 314.5,204.5C 314.611,203.883 314.944,203.383 315.5,203C 327.238,202.139 338.571,203.639 349.5,207.5 Z"/></g>
<g><path style="opacity:1" fill="#f7d0a7" d="M 329.5,367.5 C 329.706,370.495 329.04,373.162 327.5,375.5C 327.565,372.572 328.232,369.905 329.5,367.5 Z"/></g>
<g><path style="opacity:1" fill="#fee0c1" d="M 331.5,351.5 C 332.796,357.013 332.129,362.346 329.5,367.5C 330.296,362.184 330.963,356.851 331.5,351.5 Z"/></g>
<g><path style="opacity:1" fill="#fdf0e1" d="M 339.5,340.5 C 340.833,340.5 342.167,340.5 343.5,340.5C 343.5,342.167 343.5,343.833 343.5,345.5C 339.065,346.078 337.732,344.411 339.5,340.5 Z"/></g>
<g><path style="opacity:1" fill="#f9d0a8" d="M 329.5,338.5 C 329.269,342.993 329.936,347.326 331.5,351.5C 330.034,350.653 329.2,349.32 329,347.5C 328.195,344.304 328.362,341.304 329.5,338.5 Z"/></g>
<g><path style="opacity:1" fill="#fff2da" d="M 357.5,383.5 C 357.5,386.833 357.5,390.167 357.5,393.5C 357.167,393.5 356.833,393.5 356.5,393.5C 348.981,393.825 341.648,393.492 334.5,392.5C 341.833,392.5 349.167,392.5 356.5,392.5C 356.19,389.287 356.523,386.287 357.5,383.5 Z"/></g>
<g><path style="opacity:1" fill="#f4bf84" d="M 335.5,386.5 C 334.659,388.379 334.325,390.379 334.5,392.5C 341.648,393.492 348.981,393.825 356.5,393.5C 349.018,394.492 341.352,394.825 333.5,394.5C 332.964,391.302 333.631,388.635 335.5,386.5 Z"/></g>
<g><path style="opacity:1" fill="#d2e6f4" d="M 363.5,419.5 C 363.5,417.5 363.5,415.5 363.5,413.5C 362.5,413.5 361.5,413.5 360.5,413.5C 330.833,412.167 301.167,412.167 271.5,413.5C 270.833,413.5 270.167,413.5 269.5,413.5C 284.485,412.167 299.818,411.501 315.5,411.5C 331.864,411.522 348.197,411.855 364.5,412.5C 364.802,415.059 364.468,417.393 363.5,419.5 Z"/></g>
<g><path style="opacity:1" fill="#0961a6" d="M 360.5,413.5 C 360.631,414.239 360.464,414.906 360,415.5C 330.574,414.505 301.074,414.171 271.5,414.5C 271.5,414.167 271.5,413.833 271.5,413.5C 301.167,412.167 330.833,412.167 360.5,413.5 Z"/></g>
<g><path style="opacity:1" fill="#75a4c5" d="M 269.5,413.5 C 270.167,413.5 270.833,413.5 271.5,413.5C 271.5,413.833 271.5,414.167 271.5,414.5C 269.787,415.635 269.12,417.302 269.5,419.5C 268.258,417.611 268.258,415.611 269.5,413.5 Z"/></g>
<g><path style="opacity:1" fill="#1c65a1" d="M 360.5,413.5 C 361.5,413.5 362.5,413.5 363.5,413.5C 363.5,415.5 363.5,417.5 363.5,419.5C 362.942,420.79 361.942,421.623 360.5,422C 330.833,422.667 301.167,422.667 271.5,422C 270.619,421.292 269.953,420.458 269.5,419.5C 269.12,417.302 269.787,415.635 271.5,414.5C 301.074,414.171 330.574,414.505 360,415.5C 360.464,414.906 360.631,414.239 360.5,413.5 Z"/></g>
<g><path style="opacity:1" fill="#035fa5" d="M 277.5,433.5 C 302.167,433.5 326.833,433.5 351.5,433.5C 351.5,434.5 351.5,435.5 351.5,436.5C 327.491,436.167 303.491,436.5 279.5,437.5C 299.125,438.719 318.459,440.052 337.5,441.5C 336.833,441.5 336.167,441.5 335.5,441.5C 317.004,440.668 298.338,440.168 279.5,440C 277.984,438.103 277.317,435.936 277.5,433.5 Z"/></g>
<g><path style="opacity:1" fill="#2168a3" d="M 353.5,441.5 C 348.167,441.5 342.833,441.5 337.5,441.5C 318.459,440.052 299.125,438.719 279.5,437.5C 303.491,436.5 327.491,436.167 351.5,436.5C 351.5,435.5 351.5,434.5 351.5,433.5C 326.833,433.5 302.167,433.5 277.5,433.5C 277.918,432.778 278.584,432.278 279.5,432C 304.5,431.333 329.5,431.333 354.5,432C 357.373,435.579 357.04,438.745 353.5,441.5 Z"/></g>
<g><path style="opacity:1" fill="#1b5f8d" d="M 277.5,433.5 C 277.317,435.936 277.984,438.103 279.5,440C 298.338,440.168 317.004,440.668 335.5,441.5C 316.497,441.667 297.497,441.5 278.5,441C 276.771,439.211 276.104,437.044 276.5,434.5C 276.5,433.833 276.833,433.5 277.5,433.5 Z"/></g>
<g><path style="opacity:1" fill="#cfe5f5" d="M 276.5,434.5 C 276.104,437.044 276.771,439.211 278.5,441C 297.497,441.5 316.497,441.667 335.5,441.5C 336.167,441.5 336.833,441.5 337.5,441.5C 342.833,441.5 348.167,441.5 353.5,441.5C 349.647,442.166 345.647,442.833 341.5,443.5C 341.863,444.183 342.196,444.85 342.5,445.5C 341.167,445.5 339.833,445.5 338.5,445.5C 338.414,444.504 338.748,443.671 339.5,443C 318.169,442.5 296.836,442.333 275.5,442.5C 275.194,439.615 275.527,436.948 276.5,434.5 Z"/></g>
<g><path style="opacity:1" fill="#1260a0" d="M 338.5,445.5 C 339.833,445.5 341.167,445.5 342.5,445.5C 345.254,447.053 346.087,449.386 345,452.5C 335.834,467.489 322.668,472.656 305.5,468C 296.004,465.003 289.671,458.837 286.5,449.5C 286.895,444.987 289.229,443.487 293.5,445C 302.241,460.234 314.407,463.734 330,455.5C 333.433,452.576 336.266,449.243 338.5,445.5 Z"/></g>
</svg>
