<svg 
    xmlns="http://www.w3.org/2000/svg" 
    width="512" 
    height="512" 
    viewBox="0 0 512 512"
>
  <circle 
    cx="256" 
    cy="256" 
    r="256" 
    fill="#B6E9FA"
  />
  <path 
    d="M256,100c-86,0-156,70-156,156s70,156,156,156c48,0,91-21,119-54  l-37-37c-19,23-47,37-82,37c-58,0-106-48-106-106s48-106,106-106c35,0,63,14,82,37l37-37c-28-33-71-54-119-54z" 
    fill="#1D8BD5"
  />
  <rect 
    x="210" 
    y="180" 
    width="92" 
    height="152" 
    rx="10" 
    ry="10" 
    fill="#8DD7F0"
  />
  <circle 
    cx="270" 
    cy="210" 
    r="15" 
    fill="#5CBFE9"
  />
</svg>
